<mxfile host="app.diagrams.net" modified="2023-08-29T01:54:25.522Z" agent="Mozilla/5.0 (Windows NT 10.0; Win64; x64) AppleWebKit/537.36 (KHTML, like Gecko) Chrome/115.0.0.0 Safari/537.36" etag="fIhv3R57HAniNFahbSy_" version="21.6.9" type="device">
  <diagram name="페이지-1" id="7Ij8uKjP76WhhLE6ZRci">
    <mxGraphModel dx="1434" dy="1959" grid="1" gridSize="10" guides="1" tooltips="1" connect="1" arrows="1" fold="1" page="1" pageScale="1" pageWidth="827" pageHeight="1169" background="#FFFFFF" math="0" shadow="0">
      <root>
        <mxCell id="0" />
        <mxCell id="1" parent="0" />
        <mxCell id="FlCNs_IBPol1UIJCw7tp-71" value="" style="rounded=0;whiteSpace=wrap;html=1;strokeColor=#ffffff;" parent="1" vertex="1">
          <mxGeometry x="70" y="-1169" width="520" height="699" as="geometry" />
        </mxCell>
        <mxCell id="FlCNs_IBPol1UIJCw7tp-15" style="edgeStyle=orthogonalEdgeStyle;rounded=0;orthogonalLoop=1;jettySize=auto;html=1;entryX=0.5;entryY=0;entryDx=0;entryDy=0;strokeWidth=3;" parent="1" source="FlCNs_IBPol1UIJCw7tp-10" target="FlCNs_IBPol1UIJCw7tp-13" edge="1">
          <mxGeometry relative="1" as="geometry" />
        </mxCell>
        <mxCell id="FlCNs_IBPol1UIJCw7tp-10" value="Recv Packet" style="shape=parallelogram;perimeter=parallelogramPerimeter;whiteSpace=wrap;html=1;fixedSize=1;aspect=fixed;strokeWidth=2;fontStyle=1" parent="1" vertex="1">
          <mxGeometry x="289.03000000000003" y="-1120" width="124" height="91" as="geometry" />
        </mxCell>
        <mxCell id="FlCNs_IBPol1UIJCw7tp-58" value="CmdType_Tird_Info" style="edgeStyle=orthogonalEdgeStyle;rounded=0;orthogonalLoop=1;jettySize=auto;html=1;entryX=0.5;entryY=0;entryDx=0;entryDy=0;fontStyle=1;fontSize=12;strokeWidth=3;exitX=0.5;exitY=1;exitDx=0;exitDy=0;" parent="1" source="FlCNs_IBPol1UIJCw7tp-13" target="VMmikbXuykKC2oKP8Y5w-1" edge="1">
          <mxGeometry x="0.5015" relative="1" as="geometry">
            <Array as="points">
              <mxPoint x="352" y="-930" />
              <mxPoint x="350" y="-930" />
              <mxPoint x="350" y="-860" />
            </Array>
            <mxPoint as="offset" />
          </mxGeometry>
        </mxCell>
        <mxCell id="FlCNs_IBPol1UIJCw7tp-13" value="Cmd_Type&lt;br style=&quot;font-size: 14px;&quot;&gt;CHeck" style="rhombus;whiteSpace=wrap;html=1;aspect=fixed;strokeWidth=2;fontStyle=1;fontSize=14;" parent="1" vertex="1">
          <mxGeometry x="298.03000000000003" y="-980" width="105" height="100" as="geometry" />
        </mxCell>
        <mxCell id="FlCNs_IBPol1UIJCw7tp-21" value="Handle Update Pending Info" style="rounded=0;whiteSpace=wrap;html=1;fontStyle=1;strokeWidth=2;fontSize=14;" parent="1" vertex="1">
          <mxGeometry x="301.03000000000003" y="-560" width="103" height="76" as="geometry" />
        </mxCell>
        <mxCell id="FlCNs_IBPol1UIJCw7tp-23" value="Is Pair?" style="rhombus;whiteSpace=wrap;html=1;aspect=fixed;fontStyle=1;strokeWidth=2;fontSize=14;" parent="1" vertex="1">
          <mxGeometry x="299.03000000000003" y="-695" width="105" height="100" as="geometry" />
        </mxCell>
        <mxCell id="FlCNs_IBPol1UIJCw7tp-32" value="&lt;p style=&quot;margin: 0px; padding: 0px; border: 0px none; line-height: 0px; overflow-wrap: break-word; font-family: Arial; font-size: 14px;&quot;&gt;&lt;span style=&quot;font-size: 14px;&quot;&gt;&lt;/span&gt;&lt;/p&gt;&lt;p style=&quot;margin: 0px; padding: 0px; border: 0px none; line-height: 0px; overflow-wrap: break-word; font-family: Arial; font-size: 14px;&quot;&gt;&lt;span style=&quot;font-size: 14px;&quot;&gt;&lt;/span&gt;&lt;/p&gt;&lt;p style=&quot;margin: 0px; padding: 0px; border: 0px none; line-height: 0px; overflow-wrap: break-word; font-family: Arial; font-size: 14px;&quot;&gt;&lt;span style=&quot;font-size: 14px;&quot;&gt;Disconnected&lt;/span&gt;&lt;/p&gt;&lt;p style=&quot;margin: 0px; padding: 0px; border: 0px none; line-height: 0px; overflow-wrap: break-word; font-family: Arial; font-size: 14px;&quot;&gt;&lt;span style=&quot;font-size: 14px;&quot;&gt;&lt;br style=&quot;font-size: 14px;&quot;&gt;&lt;/span&gt;&lt;/p&gt;" style="rounded=0;whiteSpace=wrap;html=1;fontStyle=1;strokeWidth=2;fontSize=14;" parent="1" vertex="1">
          <mxGeometry x="431.03000000000003" y="-560" width="103" height="76" as="geometry" />
        </mxCell>
        <mxCell id="VzTFzCelFTvTFUtPNzLl-1" style="edgeStyle=orthogonalEdgeStyle;rounded=0;orthogonalLoop=1;jettySize=auto;html=1;exitX=0;exitY=0.5;exitDx=0;exitDy=0;entryX=1;entryY=0.5;entryDx=0;entryDy=0;fontStyle=1;strokeWidth=3;" parent="1" edge="1">
          <mxGeometry relative="1" as="geometry">
            <mxPoint x="520" y="-1140" as="sourcePoint" />
            <mxPoint x="470" y="-1140" as="targetPoint" />
          </mxGeometry>
        </mxCell>
        <mxCell id="VzTFzCelFTvTFUtPNzLl-2" style="edgeStyle=orthogonalEdgeStyle;rounded=0;orthogonalLoop=1;jettySize=auto;html=1;entryX=1;entryY=0.5;entryDx=0;entryDy=0;fontStyle=1;strokeWidth=3;strokeColor=#FC2821;" parent="1" edge="1">
          <mxGeometry relative="1" as="geometry">
            <mxPoint x="520" y="-1110" as="sourcePoint" />
            <mxPoint x="470.0000000000002" y="-1110" as="targetPoint" />
          </mxGeometry>
        </mxCell>
        <mxCell id="VzTFzCelFTvTFUtPNzLl-4" value="참" style="text;html=1;strokeColor=none;fillColor=none;align=center;verticalAlign=middle;whiteSpace=wrap;rounded=0;fontSize=20;fontStyle=1" parent="1" vertex="1">
          <mxGeometry x="520" y="-1154" width="60" height="30" as="geometry" />
        </mxCell>
        <mxCell id="VzTFzCelFTvTFUtPNzLl-5" value="거짓" style="text;html=1;strokeColor=none;fillColor=none;align=center;verticalAlign=middle;whiteSpace=wrap;rounded=0;fontSize=20;fontStyle=1" parent="1" vertex="1">
          <mxGeometry x="520" y="-1124" width="60" height="30" as="geometry" />
        </mxCell>
        <mxCell id="mwJyTNDDtB5qL9PiFzt8-2" style="edgeStyle=orthogonalEdgeStyle;rounded=0;orthogonalLoop=1;jettySize=auto;html=1;exitX=0;exitY=0.5;exitDx=0;exitDy=0;entryX=1;entryY=0.5;entryDx=0;entryDy=0;fontStyle=1;strokeWidth=3;" parent="1" source="FlCNs_IBPol1UIJCw7tp-23" target="mwJyTNDDtB5qL9PiFzt8-3" edge="1">
          <mxGeometry relative="1" as="geometry">
            <mxPoint x="180.03000000000003" y="-760" as="sourcePoint" />
            <mxPoint x="130.03" y="-760" as="targetPoint" />
            <Array as="points" />
          </mxGeometry>
        </mxCell>
        <mxCell id="mwJyTNDDtB5qL9PiFzt8-3" value="Handle&lt;br style=&quot;font-size: 14px;&quot;&gt;Pairing Info" style="rounded=0;whiteSpace=wrap;fontStyle=1;html=1;strokeWidth=2;fontSize=14;" parent="1" vertex="1">
          <mxGeometry x="107.53000000000023" y="-682" width="103" height="76" as="geometry" />
        </mxCell>
        <mxCell id="mwJyTNDDtB5qL9PiFzt8-4" value="Else" style="edgeStyle=orthogonalEdgeStyle;rounded=0;orthogonalLoop=1;jettySize=auto;html=1;exitX=1;exitY=0.5;exitDx=0;exitDy=0;entryX=0.5;entryY=0;entryDx=0;entryDy=0;fontStyle=1;strokeWidth=3;strokeColor=#FC2821;fontSize=12;" parent="1" source="FlCNs_IBPol1UIJCw7tp-13" target="FlCNs_IBPol1UIJCw7tp-32" edge="1">
          <mxGeometry x="-0.8355" relative="1" as="geometry">
            <mxPoint x="650.0300000000002" y="-890" as="sourcePoint" />
            <mxPoint x="450.03000000000026" y="-890" as="targetPoint" />
            <mxPoint as="offset" />
          </mxGeometry>
        </mxCell>
        <mxCell id="mwJyTNDDtB5qL9PiFzt8-19" value="Send Input Data To Target" style="rounded=0;whiteSpace=wrap;fontStyle=1;html=1;strokeWidth=2;fontSize=14;" parent="1" vertex="1">
          <mxGeometry x="106.53000000000023" y="-956" width="103" height="76" as="geometry" />
        </mxCell>
        <mxCell id="VMmikbXuykKC2oKP8Y5w-1" value="Device Type&lt;br style=&quot;font-size: 14px;&quot;&gt;Is TIRD?" style="rhombus;whiteSpace=wrap;html=1;aspect=fixed;fontStyle=1;strokeWidth=2;fontSize=14;" parent="1" vertex="1">
          <mxGeometry x="298.03" y="-827" width="105" height="100" as="geometry" />
        </mxCell>
        <mxCell id="VMmikbXuykKC2oKP8Y5w-2" style="edgeStyle=orthogonalEdgeStyle;rounded=0;orthogonalLoop=1;jettySize=auto;html=1;exitX=0.5;exitY=1;exitDx=0;exitDy=0;entryX=0.5;entryY=0;entryDx=0;entryDy=0;fontStyle=1;strokeWidth=3;" parent="1" source="VMmikbXuykKC2oKP8Y5w-1" target="FlCNs_IBPol1UIJCw7tp-23" edge="1">
          <mxGeometry relative="1" as="geometry">
            <mxPoint x="280" y="-770" as="sourcePoint" />
            <mxPoint x="230" y="-770" as="targetPoint" />
          </mxGeometry>
        </mxCell>
        <mxCell id="VMmikbXuykKC2oKP8Y5w-3" style="edgeStyle=orthogonalEdgeStyle;rounded=0;orthogonalLoop=1;jettySize=auto;html=1;exitX=1;exitY=0.5;exitDx=0;exitDy=0;entryX=0.5;entryY=0;entryDx=0;entryDy=0;fontStyle=1;strokeWidth=3;strokeColor=#FC2821;" parent="1" source="VMmikbXuykKC2oKP8Y5w-1" target="FlCNs_IBPol1UIJCw7tp-32" edge="1">
          <mxGeometry relative="1" as="geometry">
            <mxPoint x="340.0000000000002" y="-810" as="sourcePoint" />
            <mxPoint x="140.00000000000023" y="-810" as="targetPoint" />
          </mxGeometry>
        </mxCell>
        <mxCell id="VMmikbXuykKC2oKP8Y5w-4" style="edgeStyle=orthogonalEdgeStyle;rounded=0;orthogonalLoop=1;jettySize=auto;html=1;exitX=0.5;exitY=1;exitDx=0;exitDy=0;entryX=0.5;entryY=0;entryDx=0;entryDy=0;fontStyle=1;strokeWidth=3;strokeColor=#FC2821;" parent="1" source="FlCNs_IBPol1UIJCw7tp-23" target="FlCNs_IBPol1UIJCw7tp-21" edge="1">
          <mxGeometry relative="1" as="geometry">
            <mxPoint x="360.0000000000002" y="-740" as="sourcePoint" />
            <mxPoint x="160.00000000000023" y="-740" as="targetPoint" />
          </mxGeometry>
        </mxCell>
        <mxCell id="VMmikbXuykKC2oKP8Y5w-5" style="edgeStyle=orthogonalEdgeStyle;rounded=0;orthogonalLoop=1;jettySize=auto;html=1;exitX=0.5;exitY=0;exitDx=0;exitDy=0;entryX=0.5;entryY=1;entryDx=0;entryDy=0;fontStyle=1;strokeWidth=3;" parent="1" source="mwJyTNDDtB5qL9PiFzt8-3" target="mwJyTNDDtB5qL9PiFzt8-19" edge="1">
          <mxGeometry relative="1" as="geometry">
            <mxPoint x="60" y="-790" as="sourcePoint" />
            <mxPoint x="10" y="-790" as="targetPoint" />
          </mxGeometry>
        </mxCell>
      </root>
    </mxGraphModel>
  </diagram>
</mxfile>
